<svg width="450" height="500" viewBox="0 0 450 500" fill="none" xmlns="http://www.w3.org/2000/svg">
<rect width="450" height="500" fill="#28892D"/>
<path d="M441.545 8.91064H8.41992V490.161H441.545V8.91064ZM427.513 487.941C427.513 486.609 427.871 484.113 430.091 482.071C431.964 480.364 434.795 479.308 438.555 478.913V487.941H427.513ZM229.055 248.426C228.444 247.192 226.863 246.305 224.976 246.305C223.089 246.305 221.508 247.192 220.896 248.426H162.455C163.253 223.327 190.972 203.092 224.976 203.092C258.98 203.092 286.699 223.327 287.496 248.426H229.055ZM220.91 250.646C221.521 251.879 223.102 252.767 224.989 252.767C226.876 252.767 228.457 251.879 229.069 250.646H287.509C286.712 275.744 258.98 295.979 224.989 295.979C190.998 295.979 163.266 275.744 162.469 250.646H220.91ZM438.555 20.1578C434.808 19.7632 431.977 18.7075 430.117 17.0204C427.885 14.9979 427.526 12.4821 427.513 11.1305H438.555V20.1578ZM291.974 41.113H157.991V11.1305H291.974V41.113ZM155.001 43.3329H294.964V11.1305H360.461V92.1495H89.5038V11.1305H155.001V43.3329ZM274.567 94.3693C262.754 105.784 244.43 112.542 224.976 112.542C205.522 112.542 187.198 105.794 175.385 94.3693H274.567ZM86.514 94.3693H171.704C184.009 107.146 203.861 114.762 224.989 114.762C246.117 114.762 265.969 107.146 278.274 94.3693H363.464V11.1305H424.536C424.536 12.8077 425.001 15.8464 427.792 18.4017C430.223 20.6215 433.851 21.9534 438.568 22.3875V248.436H290.499C289.702 222.113 260.628 200.882 224.989 200.882C189.35 200.882 160.289 222.113 159.492 248.436H11.4097V22.3875C16.127 21.9534 19.7547 20.6215 22.1864 18.4017C24.9769 15.8464 25.4287 12.8077 25.442 11.1305H86.514V94.3693ZM22.4521 11.1305C22.4521 12.4722 22.0934 14.9585 19.861 17.0007C18.0006 18.7075 15.157 19.7632 11.3965 20.1578V11.1305H22.4388H22.4521ZM11.4097 478.913C15.1437 479.308 17.9873 480.364 19.8477 482.051C22.0801 484.083 22.4388 486.589 22.4388 487.941H11.4097V478.913ZM157.991 457.958H291.974V487.941H157.991V457.958ZM294.964 455.738H155.001V487.941H89.5038V406.922H360.461V487.941H294.964V455.738ZM175.385 404.702C187.198 393.287 205.522 386.529 224.976 386.529C244.43 386.529 262.754 393.277 274.567 404.702H175.385ZM363.451 404.702H278.261C265.956 391.935 246.104 384.309 224.976 384.309C203.848 384.309 183.995 391.926 171.691 404.702H86.514V487.941H25.442C25.442 486.264 24.9902 483.225 22.1864 480.67C19.7547 478.45 16.127 477.118 11.4097 476.684V250.646H159.479C160.276 276.968 189.35 298.199 224.976 298.199C260.601 298.199 289.675 276.968 290.486 250.646H438.555V476.684C433.838 477.118 430.197 478.45 427.778 480.67C424.988 483.225 424.536 486.264 424.523 487.941H363.451V404.702Z" fill="#F1F1F1"/>
</svg>
