<svg width="512" height="512" viewBox="0 0 512 512" fill="none" xmlns="http://www.w3.org/2000/svg">
<path d="M130.837 64H386.836C420.617 64 448 88.6781 448 119.12V285.979C448 316.42 420.617 341.099 386.836 341.099H130.837V64Z" fill="#FAD515"/>
<path d="M64 73.745C64 68.363 68.8414 64 74.8137 64H196.711C203.664 64 209.301 69.0799 209.301 75.3464V429.728C209.301 439.819 200.224 448 189.026 448H76.5908C69.6371 448 64 442.92 64 436.654V257.898C64 254.486 65.7048 251.254 68.6419 249.099L119.327 211.916C125.492 207.393 125.52 198.917 119.385 194.36L68.5833 156.631C65.6811 154.476 64 151.264 64 147.875V73.745Z" fill="#FAD515"/>
<path d="M109.395 253.113C108.96 253.113 108.606 253.43 108.627 253.822C109.04 261.201 115.858 267.121 124.208 267.121H175.207H220.633C221.301 267.121 221.665 266.419 221.236 265.957L209.546 253.367C209.397 253.206 209.176 253.113 208.943 253.113H109.395Z" fill="#082A5A"/>
<path d="M94.0076 301.597C93.5736 301.597 93.2183 301.909 93.2539 302.289C93.9587 309.817 106.105 315.86 120.986 315.86H211.749H301.725C302.159 315.86 302.512 315.552 302.512 315.168V302.289C302.512 301.907 302.159 301.597 301.725 301.597H94.0076Z" fill="#082A5A"/>
<path d="M94.0093 98.9074C93.5746 98.9074 93.2187 98.5967 93.2539 98.2158C93.946 90.6884 105.875 84.644 120.489 84.644H209.625H297.974C298.409 84.644 298.761 84.9538 298.761 85.336V98.2154C298.761 98.5975 298.409 98.9074 297.974 98.9074H94.0093Z" fill="#082A5A"/>
<path d="M109.436 147.595C109.002 147.595 108.647 147.277 108.669 146.886C109.079 139.476 115.873 133.529 124.194 133.529H175.011H220.18C220.846 133.529 221.211 134.229 220.785 134.691L209.142 147.339C208.992 147.501 208.77 147.595 208.536 147.595H109.436Z" fill="#082A5A"/>
<path d="M299.896 308.705C364.666 308.705 416.151 257.724 416.151 200.077C416.151 142.429 360.917 91.7524 296.146 91.7524" stroke="#082A5A" stroke-width="14.2255"/>
<path d="M296.929 109.386C277.008 109.386 257.533 114.709 240.97 124.683C224.405 134.658 211.494 148.834 203.87 165.42C196.247 182.006 194.252 200.258 198.139 217.866C202.025 235.474 211.618 251.647 225.705 264.342C239.792 277.036 257.739 285.682 277.278 289.183C296.818 292.687 317.07 290.888 335.476 284.018C353.881 277.148 369.613 265.513 380.68 250.586C391.747 235.66 397.655 218.11 397.655 200.157C397.627 176.091 387.005 153.017 368.122 136C349.239 118.983 323.634 109.411 296.929 109.386ZM371.04 238.054H338.479L329.511 226.917L341.743 194.815L356.271 190.547L381.684 208.116C380.482 218.653 376.857 228.849 371.04 238.054ZM212.203 208.116L237.569 190.556L252.097 194.824L264.329 226.926L255.38 238.054H222.818C216.995 228.85 213.364 218.654 212.155 208.116H212.203ZM221.888 163.918L227.225 180.152L212.387 190.355C213.702 181.098 216.893 172.137 221.802 163.918H221.888ZM278.528 221.104L267.428 191.996L296.929 173.72L326.431 191.996L315.331 221.104H278.528ZM366.731 180.152L372.068 163.918C376.975 172.137 380.167 181.098 381.481 190.355L366.731 180.152ZM360.725 149.273L351.515 177.272L336.919 181.54L304.677 161.57V147.972L332.852 130.516C343.463 134.989 352.946 141.372 360.716 149.273H360.725ZM314.43 124.983L296.929 135.823L279.428 124.983C290.971 122.805 302.888 122.805 314.43 124.983ZM261.006 130.516L289.181 147.972V161.57L256.949 181.54L242.353 177.272L233.143 149.273C240.913 141.372 250.395 134.989 261.006 130.516ZM234.12 252.018H253.85L260.794 269.71C250.71 265.434 241.65 259.425 234.12 252.018ZM279.496 275.331L267.989 246.162L276.929 235.068H316.93L325.869 246.162L314.412 275.331C302.882 277.508 290.977 277.508 279.447 275.331H279.496ZM333.114 269.71L340.057 252.018H359.786C352.244 259.429 343.166 265.438 333.065 269.71H333.114Z" fill="#082A5A" stroke="#082A5A" stroke-width="0.384"/>
</svg>
